<?xml version="1.0" encoding="utf-8"?>
<!-- Generator: Adobe Illustrator 23.0.1, SVG Export Plug-In . SVG Version: 6.00 Build 0)  -->
<svg version="1.1" id="Layer_1" xmlns="http://www.w3.org/2000/svg" xmlns:xlink="http://www.w3.org/1999/xlink" x="0px" y="0px"
	 viewBox="0 0 160 30" style="enable-background:new 0 0 160 30;" xml:space="preserve">
<style type="text/css">
	.st0{fill:#E1001E;}
	.st1{fill:#FFFFFF;}
</style>
<g>
	<g id="XMLID_2_">
		<path id="XMLID_23_" class="st1" d="M40.9,21.9c-0.6,0.4-1.3,0.5-2.2,0.5c-1.5,0-2.7-0.6-3.4-1.7c-0.8-1.1-1.2-2.7-1.2-4.6
			c0-1.9,0.4-3.5,1.2-4.6c0.8-1.1,1.9-1.7,3.4-1.7c0.9,0,1.6,0.2,2.1,0.5c0.5,0.3,1,0.9,1.5,1.6l2.3-1.4C44,9.4,43.2,8.6,42.2,8
			c-1-0.5-2.1-0.8-3.5-0.8c-1.1,0-2.1,0.2-3,0.7c-0.9,0.4-1.7,1-2.3,1.8c-0.6,0.8-1.1,1.7-1.5,2.8c-0.3,1.1-0.5,2.3-0.5,3.6
			c0,1.3,0.2,2.5,0.5,3.6c0.3,1.1,0.8,2,1.5,2.8c0.6,0.8,1.4,1.4,2.3,1.8c0.9,0.4,1.9,0.7,3,0.7c1.3,0,2.5-0.3,3.5-0.8
			c1-0.6,1.8-1.4,2.4-2.4l-2.1-1.4C42,21,41.5,21.5,40.9,21.9z"/>
		<path id="XMLID_22_" class="st1" d="M53.6,11.5c-0.7,0-1.3,0.1-1.9,0.4c-0.6,0.3-1,0.6-1.4,1.1V6.8l-2.6,1.3v16.6h2.6v-7.5
			c0-1,0.2-1.9,0.7-2.4c0.5-0.6,1.1-0.9,2-0.9c0.8,0,1.5,0.3,1.9,0.8c0.5,0.5,0.7,1.4,0.7,2.8v7.3h2.6v-7.4c0-1.9-0.4-3.4-1.2-4.3
			C56.3,12,55.1,11.5,53.6,11.5z"/>
		<path id="XMLID_21_" class="st1" d="M63.1,6.8c-0.5,0-0.8,0.2-1.2,0.5c-0.3,0.3-0.5,0.7-0.5,1.2c0,0.4,0.2,0.8,0.5,1.1
			c0.3,0.3,0.7,0.5,1.2,0.5c0.4,0,0.8-0.2,1.1-0.5c0.3-0.3,0.5-0.7,0.5-1.1c0-0.5-0.2-0.8-0.5-1.2C63.9,7,63.5,6.8,63.1,6.8z"/>
		<rect id="XMLID_20_" x="61.8" y="11.8" class="st1" width="2.6" height="12.9"/>
		<path id="XMLID_19_" class="st1" d="M73.8,11.5c-0.7,0-1.3,0.1-1.9,0.4c-0.6,0.3-1,0.6-1.4,1.1v-1.2H68v12.9h2.6v-7.5
			c0-1,0.2-1.9,0.7-2.4c0.5-0.6,1.1-0.9,2-0.9c0.8,0,1.5,0.3,1.9,0.8c0.5,0.5,0.7,1.4,0.7,2.8v7.3h2.6v-7.4c0-1.9-0.4-3.4-1.2-4.3
			C76.5,12,75.3,11.5,73.8,11.5z"/>
		<path id="XMLID_16_" class="st1" d="M91,13.4c-0.5-0.6-1-1.1-1.7-1.4c-0.7-0.3-1.5-0.5-2.4-0.5c-0.8,0-1.6,0.1-2.3,0.4
			c-0.7,0.3-1.3,0.7-1.8,1.3c-0.5,0.6-0.9,1.3-1.2,2.1c-0.3,0.8-0.4,1.8-0.4,2.9c0,1.1,0.1,2,0.4,2.9c0.3,0.8,0.7,1.5,1.2,2.1
			c0.5,0.6,1.1,1,1.8,1.3c0.7,0.3,1.4,0.4,2.2,0.4c1,0,1.8-0.1,2.5-0.4c0.7-0.3,1.3-0.7,1.9-1.3l-1.5-1.6c-0.4,0.3-0.9,0.6-1.3,0.8
			c-0.5,0.2-0.9,0.3-1.5,0.3c-0.4,0-0.8-0.1-1.1-0.2c-0.4-0.1-0.7-0.4-1-0.6c-0.3-0.3-0.5-0.7-0.7-1.1c-0.2-0.4-0.3-1-0.4-1.6h8.5
			c0-0.1,0-0.3,0-0.5c0-0.2,0-0.4,0-0.7c0-0.9-0.1-1.7-0.3-2.5C91.8,14.7,91.5,14,91,13.4z M83.8,17.1c0.1-1,0.4-1.8,0.9-2.4
			c0.5-0.6,1.2-0.8,2-0.8c0.5,0,1,0.1,1.3,0.3c0.4,0.2,0.7,0.4,0.9,0.7c0.2,0.3,0.4,0.6,0.6,1c0.1,0.4,0.2,0.8,0.2,1.3H83.8z"/>
		<path id="XMLID_15_" class="st1" d="M103,18.5c-0.4-0.3-0.8-0.6-1.4-0.9c-0.5-0.3-1.2-0.5-1.9-0.8c-0.5-0.2-0.9-0.4-1.2-0.5
			c-0.3-0.2-0.5-0.3-0.7-0.5c-0.2-0.1-0.3-0.3-0.4-0.4c-0.1-0.1-0.1-0.3-0.1-0.5c0-0.3,0.1-0.6,0.4-0.8c0.3-0.2,0.7-0.3,1.4-0.3
			c0.6,0,1.2,0.1,1.7,0.3c0.5,0.2,1.1,0.5,1.6,0.8l1.1-1.9c-0.6-0.4-1.2-0.8-2-1c-0.8-0.3-1.6-0.4-2.4-0.4c-0.6,0-1.2,0.1-1.8,0.2
			c-0.5,0.1-1,0.4-1.4,0.7c-0.4,0.3-0.7,0.7-0.9,1.1c-0.2,0.4-0.3,1-0.3,1.5c0,0.5,0.1,1,0.2,1.3c0.1,0.4,0.3,0.7,0.7,1
			c0.3,0.3,0.7,0.6,1.2,0.9c0.5,0.3,1.1,0.5,1.8,0.8c0.9,0.4,1.7,0.7,2.2,1c0.5,0.3,0.8,0.7,0.8,1.2c0,1-0.8,1.4-2.4,1.4
			c-0.6,0-1.2-0.1-1.9-0.3c-0.6-0.2-1.3-0.5-1.9-1l-1.2,1.9c0.7,0.5,1.4,0.9,2.3,1.2c0.9,0.3,1.8,0.5,2.6,0.5c0.6,0,1.3-0.1,1.8-0.2
			c0.6-0.1,1.1-0.3,1.5-0.6c0.4-0.3,0.8-0.7,1.1-1.2c0.3-0.5,0.4-1.1,0.4-1.8c0-0.6-0.1-1.1-0.3-1.6C103.7,19.2,103.4,18.8,103,18.5
			z"/>
		<path id="XMLID_12_" class="st1" d="M116.1,13.4c-0.5-0.6-1-1.1-1.7-1.4c-0.7-0.3-1.5-0.5-2.4-0.5c-0.8,0-1.6,0.1-2.3,0.4
			c-0.7,0.3-1.3,0.7-1.8,1.3c-0.5,0.6-0.9,1.3-1.2,2.1c-0.3,0.8-0.4,1.8-0.4,2.9c0,1.1,0.1,2,0.4,2.9c0.3,0.8,0.7,1.5,1.2,2.1
			c0.5,0.6,1.1,1,1.8,1.3c0.7,0.3,1.4,0.4,2.2,0.4c1,0,1.8-0.1,2.5-0.4c0.7-0.3,1.3-0.7,1.9-1.3l-1.5-1.6c-0.4,0.3-0.9,0.6-1.3,0.8
			c-0.5,0.2-0.9,0.3-1.5,0.3c-0.4,0-0.8-0.1-1.1-0.2c-0.4-0.1-0.7-0.4-1-0.6c-0.3-0.3-0.5-0.7-0.7-1.1c-0.2-0.4-0.3-1-0.4-1.6h8.5
			c0-0.1,0-0.3,0-0.5c0-0.2,0-0.4,0-0.7c0-0.9-0.1-1.7-0.3-2.5C116.9,14.7,116.6,14,116.1,13.4z M108.9,17.1c0.1-1,0.4-1.8,0.9-2.4
			c0.5-0.6,1.2-0.8,2-0.8c0.5,0,1,0.1,1.3,0.3c0.4,0.2,0.7,0.4,0.9,0.7c0.2,0.3,0.4,0.6,0.6,1c0.1,0.4,0.2,0.8,0.2,1.3H108.9z"/>
		<path id="XMLID_9_" class="st1" d="M132,8.9c-0.5-0.5-1.1-0.8-1.8-1c-0.7-0.2-1.4-0.3-2.2-0.3h-7.2v17.2h2.6v-6.4h4.5
			c0.8,0,1.6-0.1,2.3-0.3c0.7-0.2,1.3-0.6,1.8-1c0.5-0.5,0.9-1,1.2-1.7c0.3-0.7,0.4-1.5,0.4-2.3c0-0.9-0.1-1.7-0.4-2.3
			C132.9,9.9,132.5,9.3,132,8.9z M130.2,15.1c-0.5,0.5-1.2,0.8-2.2,0.8h-4.6V9.9h4.6c0.9,0,1.6,0.3,2.1,0.8c0.5,0.5,0.8,1.2,0.8,2.2
			C130.9,13.8,130.7,14.5,130.2,15.1z"/>
		<path id="XMLID_6_" class="st1" d="M145.1,13.3c-0.5-0.6-1.1-1-1.8-1.3c-0.7-0.3-1.5-0.5-2.3-0.5c-0.8,0-1.6,0.2-2.3,0.5
			c-0.7,0.3-1.3,0.7-1.8,1.3c-0.5,0.6-0.9,1.3-1.2,2.1c-0.3,0.8-0.4,1.8-0.4,2.8c0,1,0.1,1.9,0.4,2.8c0.3,0.8,0.7,1.5,1.2,2.1
			c0.5,0.6,1.1,1,1.8,1.4c0.7,0.3,1.4,0.5,2.3,0.5c0.8,0,1.6-0.2,2.3-0.5c0.7-0.3,1.3-0.7,1.8-1.3c0.5-0.6,0.9-1.3,1.2-2.1
			c0.3-0.8,0.4-1.8,0.4-2.9c0-1-0.1-1.9-0.4-2.7C146,14.6,145.6,13.9,145.1,13.3z M144,19.9c-0.1,0.5-0.4,1-0.6,1.4
			c-0.3,0.4-0.6,0.7-1,0.9c-0.4,0.2-0.8,0.3-1.3,0.3c-1,0-1.7-0.4-2.3-1.1c-0.6-0.7-0.9-1.8-0.9-3.3c0-1.3,0.3-2.3,0.8-3.1
			c0.5-0.8,1.3-1.2,2.3-1.2c1,0,1.8,0.4,2.4,1.2c0.6,0.8,0.9,1.8,0.9,3.2C144.2,18.9,144.1,19.4,144,19.9z"/>
		<path id="XMLID_3_" class="st1" d="M157.5,13c-0.4-0.4-0.8-0.7-1.4-1c-0.6-0.3-1.2-0.4-1.8-0.4c-0.7,0-1.3,0.1-1.9,0.4
			c-0.6,0.3-1.2,0.7-1.6,1.2c-0.5,0.5-0.8,1.2-1.1,2c-0.3,0.8-0.4,1.8-0.4,2.9c0,1.2,0.1,2.3,0.4,3.2c0.3,0.9,0.6,1.6,1.1,2.2
			c0.5,0.6,1,1,1.6,1.2c0.6,0.3,1.3,0.4,1.9,0.4c0.7,0,1.3-0.1,1.8-0.4c0.5-0.3,1.1-0.7,1.5-1.1v1.2h2.5V6.8l-2.5,1.3V13z M157.5,21
			c-0.3,0.4-0.7,0.8-1.3,1.1c-0.5,0.3-1.1,0.5-1.7,0.5c-0.9,0-1.6-0.4-2.1-1.1c-0.5-0.7-0.7-1.9-0.7-3.5c0-1.4,0.2-2.4,0.7-3.1
			c0.5-0.7,1.2-1,2.1-1c0.3,0,0.6,0.1,0.9,0.2c0.3,0.1,0.6,0.2,0.8,0.4c0.3,0.2,0.5,0.3,0.7,0.5c0.2,0.2,0.4,0.4,0.5,0.6V21z"/>
	</g>
	<g>
		<g>
			<path id="XMLID_1_" class="st1" d="M12.6,7.5c2,0,3.5-1.6,3.5-3.5c0-2-1.6-3.5-3.5-3.5S9,2,9,4C9,6,10.6,7.5,12.6,7.5z"/>
			<path class="st1" d="M25.1,4.5c-0.1-0.1-0.3-0.1-0.4,0c-0.3,0.3-4.1,5.3-12.1,4.6C7.8,8.7,2,5.7,0.5,4.5c-0.1-0.1-0.3-0.1-0.4,0
				C0,4.6,0,4.8,0.1,4.9c0,0,6.2,5.8,6.2,11.8c0,6.5-5.1,11-6.2,12.3c-0.1,0.1-0.1,0.3,0,0.4c0.1,0.1,0.2,0.1,0.3,0.1
				C12.6,23.3,18.8,17,25.1,4.8C25.2,4.7,25.2,4.6,25.1,4.5z"/>
		</g>
		<path class="st1" d="M25.1,29.2c-1-3.5-3.4-8.4-6.5-11.8c-1.8,2.1-3.7,4-5.8,5.8c4,0.3,8.9,2,11.7,6.2h0v0c0,0,0,0,0,0
			c0.1,0.1,0.3,0.1,0.4,0C25.1,29.4,25.2,29.3,25.1,29.2L25.1,29.2z"/>
	</g>
</g>
</svg>
